<svg width="187" height="70" fill="none" xmlns="http://www.w3.org/2000/svg"><g filter="url(#a)"><path fill-rule="evenodd" clip-rule="evenodd" d="M17 5a1 1 0 0 0-1 1v10l-7 7 7 7v26a1 1 0 0 0 1 1h160a1 1 0 0 0 1-1V6a1 1 0 0 0-1-1H17Z" fill="#fff"/><path d="m16 16 .354.354.146-.147V16H16Zm-7 7-.354-.354-.353.354.353.354L9 23Zm7 7h.5v-.207l-.146-.147L16 30Zm.5-24a.5.5 0 0 1 .5-.5v-1A1.5 1.5 0 0 0 15.5 6h1Zm0 10V6h-1v10h1Zm-7.146 7.354 7-7-.708-.708-7 7 .708.708Zm7 6.292-7-7-.708.708 7 7 .708-.708ZM16.5 56V30h-1v26h1Zm.5.5a.5.5 0 0 1-.5-.5h-1a1.5 1.5 0 0 0 1.5 1.5v-1Zm160 0H17v1h160v-1Zm.5-.5a.5.5 0 0 1-.5.5v1a1.5 1.5 0 0 0 1.5-1.5h-1Zm0-50v50h1V6h-1Zm-.5-.5a.5.5 0 0 1 .5.5h1a1.5 1.5 0 0 0-1.5-1.5v1Zm-160 0h160v-1H17v1Z" fill="#B9B9B9"/></g><defs><filter id="a" x=".293" y=".5" width="186.207" height="69" filterUnits="userSpaceOnUse" color-interpolation-filters="sRGB"><feFlood flood-opacity="0" result="BackgroundImageFix"/><feColorMatrix in="SourceAlpha" values="0 0 0 0 0 0 0 0 0 0 0 0 0 0 0 0 0 0 127 0" result="hardAlpha"/><feOffset dy="4"/><feGaussianBlur stdDeviation="4"/><feColorMatrix values="0 0 0 0 0.7625 0 0 0 0 0.7625 0 0 0 0 0.7625 0 0 0 0.2 0"/><feBlend in2="BackgroundImageFix" result="effect1_dropShadow_884_2844"/><feBlend in="SourceGraphic" in2="effect1_dropShadow_884_2844" result="shape"/></filter></defs></svg>