<svg width="32" height="32" fill="none" xmlns="http://www.w3.org/2000/svg"><path d="M16 0a8.01 8.01 0 0 0-7.944 7.059H8v15.887h16V7.059h-.056A8.01 8.01 0 0 0 16 0Zm6.118 21.064H9.882v-8.678a1.685 1.685 0 0 0 1.45.602c1.214 0 2.004-.677 2.004-1.534v-.819a.808.808 0 0 1 1.407-.627.81.81 0 0 1 .203.627v3.097a1.76 1.76 0 0 0 1.995 1.722 1.75 1.75 0 0 0 1.995-1.647v-2.08a1.269 1.269 0 0 1 1.778-1.272 1.268 1.268 0 0 1 .754 1.272.387.387 0 0 0 0 .085 1.064 1.064 0 0 0 .63.837v8.471l.02-.056ZM14.588 30.588a1.412 1.412 0 0 0 2.824 0v-6.7h-2.824v6.7Z" fill="#2D3440"/></svg>