<svg xmlns="http://www.w3.org/2000/svg" width="14" height="14" fill="none"><path fill="#2D3440" fill-rule="evenodd" d="M7.00026 2.12508c-2.69252 0-4.87524 2.18272-4.87524 4.87524 0 2.69252 2.18272 4.87528 4.87524 4.87528 2.69252 0 4.87524-2.18276 4.87524-4.87528S9.69278 2.12508 7.00026 2.12508ZM.79169 7.00032c0-3.4289 2.77967-6.20857 6.20857-6.20857 3.42894 0 6.20854 2.77967 6.20854 6.20857 0 3.42888-2.7796 6.20858-6.20854 6.20858-3.4289 0-6.20857-2.7797-6.20857-6.20858Zm6.20838-.66692c.36819 0 .66667.29848.66667.66667v2.21676c0 .36819-.29848.66667-.66667.66667-.36819 0-.66666-.29848-.66666-.66667V7.00007c0-.36819.29847-.66667.66666-.66667Zm0-2.21675c-.36819 0-.66666.29848-.66666.66667 0 .36818.29847.66666.66666.66666h.00583c.36819 0 .66667-.29848.66667-.66666 0-.36819-.29848-.66667-.66667-.66667h-.00583Z" clip-rule="evenodd"/></svg>