<svg width="32" height="32" fill="none" xmlns="http://www.w3.org/2000/svg"><path d="M19.189 5.07c0-1.345-.492-2.634-1.367-3.585C16.947.535 15.76 0 14.522 0c-1.237 0-2.424.534-3.3 1.485-.875.95-1.366 2.24-1.366 3.584v14.755C8.659 21.151 7.993 22.936 8 24.793a7.686 7.686 0 0 0 .782 3.41 7.008 7.008 0 0 0 2.176 2.599 6.284 6.284 0 0 0 3.05 1.168 6.144 6.144 0 0 0 3.196-.543 6.705 6.705 0 0 0 2.577-2.125 7.489 7.489 0 0 0 1.341-3.197 7.781 7.781 0 0 0-.214-3.506 7.298 7.298 0 0 0-1.72-2.976V5.069Zm.167 19.723c.01.88-.188 1.747-.575 2.52a5.017 5.017 0 0 1-1.63 1.897 4.495 4.495 0 0 1-2.276.795 4.43 4.43 0 0 1-2.343-.51 4.88 4.88 0 0 1-1.819-1.685 5.44 5.44 0 0 1-.833-2.433 5.563 5.563 0 0 1 .364-2.566 5.125 5.125 0 0 1 1.467-2.05V5.07c0-.81.296-1.586.823-2.159a2.703 2.703 0 0 1 1.988-.894c.746 0 1.46.321 1.988.894.527.573.823 1.35.823 2.16v15.5a5.024 5.024 0 0 1 1.49 1.841 5.49 5.49 0 0 1 .533 2.382Z" fill="#2D3440"/><path d="M15.534 21.638V5.14c0-.267-.098-.524-.272-.713a.892.892 0 0 0-.656-.295.892.892 0 0 0-.656.295 1.054 1.054 0 0 0-.272.713v16.498a2.85 2.85 0 0 0-1.473 1.321A3.246 3.246 0 0 0 11.863 25c.11.703.447 1.341.949 1.8.502.46 1.137.713 1.794.713.656 0 1.292-.253 1.794-.712.502-.46.838-1.098.949-1.8a3.246 3.246 0 0 0-.343-2.042 2.85 2.85 0 0 0-1.473-1.32ZM26.667 3.94H21.1v2.016h5.567V3.941ZM26.667 7.972H21.1v2.016h5.567V7.972ZM26.667 12.003H21.1v2.016h5.567v-2.016ZM26.667 16.035H21.1v2.015h5.567v-2.015Z" fill="#2D3440"/></svg>