<svg width="25" height="34" fill="none" xmlns="http://www.w3.org/2000/svg"><g filter="url(#a)"><path d="m9 13 7-7v14l-7-7Z" fill="#fff"/><path d="m9 13-.354-.354-.353.354.353.354L9 13Zm7-7h.5V4.793l-.854.853L16 6Zm0 14-.354.354.854.853V20H16Zm-6.646-6.646 7-7-.708-.708-7 7 .708.708ZM15.5 6v14h1V6h-1Zm.854 13.646-7-7-.708.708 7 7 .708-.708Z" fill="#B9B9B9"/></g><defs><filter id="a" x=".293" y=".793" width="24.207" height="32.414" filterUnits="userSpaceOnUse" color-interpolation-filters="sRGB"><feFlood flood-opacity="0" result="BackgroundImageFix"/><feColorMatrix in="SourceAlpha" values="0 0 0 0 0 0 0 0 0 0 0 0 0 0 0 0 0 0 127 0" result="hardAlpha"/><feOffset dy="4"/><feGaussianBlur stdDeviation="4"/><feColorMatrix values="0 0 0 0 0.7625 0 0 0 0 0.7625 0 0 0 0 0.7625 0 0 0 0.2 0"/><feBlend in2="BackgroundImageFix" result="effect1_dropShadow_884_2849"/><feBlend in="SourceGraphic" in2="effect1_dropShadow_884_2849" result="shape"/></filter></defs></svg>