<svg xmlns="http://www.w3.org/2000/svg"><style>:root svg:not(:target){display:none}</style><svg id="arrow-down" viewBox="0 0 12 6"><path fill-rule="evenodd" clip-rule="evenodd" d="M1.808 1.053a.667.667 0 0 0-.943.943l4.66 4.66a.665.665 0 0 0 .955 0l4.661-4.66a.667.667 0 0 0-.942-.943L6.003 5.248 1.808 1.053Z" fill="currentColor"></path></svg><svg id="arrow-left" viewBox="0 0 16 16"><path fill-rule="evenodd" clip-rule="evenodd" d="M9.803 3.805a.665.665 0 1 0-.94-.94L4.195 7.533a.665.665 0 0 0-.003.938l.004.003 4.668 4.668a.665.665 0 1 0 .94-.94L5.605 8.003l4.198-4.198Z" fill="currentColor"></path></svg><svg id="arrow-right" viewBox="0 0 16 16"><path fill-rule="evenodd" clip-rule="evenodd" d="M7.135 2.865a.665.665 0 1 0-.94.94l4.201 4.201-4.201 4.202a.665.665 0 0 0 .94.94l4.669-4.669.003-.002c.26-.26.26-.681 0-.94L7.135 2.864Z" fill="currentColor"></path></svg><svg id="cart" viewBox="0 0 16 16"><path fill-rule="evenodd" clip-rule="evenodd" d="M1.167 1.25a.667.667 0 0 0 0 1.333h1.77l.468 2.336a.664.664 0 0 0 .011.053l.967 4.833a1.825 1.825 0 0 0 1.819 1.47h5.62a1.826 1.826 0 0 0 1.819-1.47l.001-.005.927-4.861a.667.667 0 0 0-.655-.792H4.611l-.473-2.361a.667.667 0 0 0-.654-.536H1.167ZM5.69 9.544 4.878 5.48h8.23l-.775 4.067a.492.492 0 0 1-.492.395H6.183a.492.492 0 0 1-.492-.397Zm-1.134 3.961a1.246 1.246 0 1 1 2.492 0 1.246 1.246 0 0 1-2.492 0Zm6.374 0a1.246 1.246 0 1 1 2.491 0 1.246 1.246 0 0 1-2.491 0Z" fill="currentColor"></path></svg><svg id="entry" viewBox="0 0 16 16"><path fill-rule="evenodd" clip-rule="evenodd" d="M9 1.667C9 1.298 9.298 1 9.667 1h2.666a2 2 0 0 1 2 2v9.333a2 2 0 0 1-2 2H9.667a.667.667 0 1 1 0-1.333h2.666a.666.666 0 0 0 .667-.667V3a.666.666 0 0 0-.667-.667H9.667A.667.667 0 0 1 9 1.667ZM5.862 3.862c.26-.26.682-.26.943 0l3.329 3.329a.69.69 0 0 1 .129.177.664.664 0 0 1-.13.775L6.806 11.47a.667.667 0 1 1-.943-.942l2.195-2.196h-6.39a.667.667 0 1 1 0-1.333h6.39L5.862 4.805a.667.667 0 0 1 0-.943Z" fill="currentColor"></path></svg><svg id="search" viewBox="0 0 14 14"><path fill-rule="evenodd" clip-rule="evenodd" d="M1.663 6.188a4.667 4.667 0 1 1 8.028 3.237.674.674 0 0 0-.124.124 4.667 4.667 0 0 1-7.904-3.361Zm8.412 4.688a6 6 0 1 1 .943-.943l2.45 2.45a.667.667 0 1 1-.943.943l-2.45-2.45Z" fill="currentColor"></path></svg></svg>