<svg width="12" height="6" viewBox="0 0 12 6" xmlns="http://www.w3.org/2000/svg">
<path fill-rule="evenodd" clip-rule="evenodd" d="M1.80812 1.0532C1.54777 0.792853 1.12566 0.792853 0.865306 1.0532C0.604957 1.31355 0.604957 1.73566 0.865306 1.99601L5.52565 6.65636C5.52771 6.65847 5.52979 6.66058 5.53189 6.66268C5.66259 6.79337 5.83404 6.85846 6.00534 6.85794C6.1753 6.85744 6.34511 6.79236 6.47478 6.66268C6.47687 6.66059 6.47894 6.6585 6.48099 6.65639L11.1414 1.99601C11.4017 1.73566 11.4017 1.31355 11.1414 1.0532C10.881 0.792853 10.4589 0.792853 10.1986 1.0532L6.00334 5.24842L1.80812 1.0532Z" fill="currentColor"/>
</svg>
