<svg width="359" height="146" fill="none" xmlns="http://www.w3.org/2000/svg"><path d="M138.334 98.438a9.04 9.04 0 0 0-5.016.867s-7 5.882-41.626-.89c-25.455-4.993-38.685-4.477-38.685-4.477s4.27-29.294 3.103-37.496a2.348 2.348 0 0 0-.796-1.564 2.327 2.327 0 0 0-1.654-.569c-2.543 0-4.083.984-4.083 2.344a111.51 111.51 0 0 1-.583 16.592 14.05 14.05 0 0 1-5.645 7.05 13.952 13.952 0 0 1-8.751 2.136C23.515 81.658 21.18 73.643 20.2 68.183c-.98-5.46-1.54-20.717 1.377-26.95 0 0 16.706.585 27.206-8.414 10.5-9 9.846-16.78 4.876-20.108-4.97-3.327-16.612-2.741-25.549 5.46a45.41 45.41 0 0 0-11.853 16.406S3.122 31.764 6.132 17.984C9.328 3.595 28.904 5.283 28.904 5.283c4.084.796 4.27 1.171 5.624-.188C35.88 3.735 36.86.221 30.444.01 24.028-.201 4.78 2.986 1.092 15.828c-3.943 13.663 3.337 23.436 13.113 24.959 0 0-5.343 23.67 1.26 35.387a20.82 20.82 0 0 0 8.288 8.829 20.692 20.692 0 0 0 11.778 2.701c3.85 0 10.663-2.156 12.6-5.273 0 0-.91 8.39-1.68 11.437 0 0-16.193-.211-21.256 2.343-8.61 4.57-6.814 15.28-3.5 19.076 2.8 3.234 11.223 4.992 17.312 2.11a23.227 23.227 0 0 0 8.758-7.37 23.357 23.357 0 0 0 4.192-10.675 92.164 92.164 0 0 1 29.236 3.187c14.396 4.312 34.438 8.343 40.458 8.343 6.02 0 18.666-1.735 19.436-6.773.42-3.328-.816-5.062-2.753-5.671ZM37.001 20.117s7.653-5.859 11.316-2.203a5.05 5.05 0 0 1 .21 6.609c-1.54 2.015-5.6 8.39-24.872 11.553 0 0 6.066-10.686 13.346-15.959Zm.63 91.186s-10.57 5.789-11.666-2.062a7.414 7.414 0 0 1 .421-4.911 7.365 7.365 0 0 1 3.405-3.549c1.843-.914 4.363-2.062 15.353-1.664a14.857 14.857 0 0 1-2.191 7.067 14.77 14.77 0 0 1-5.322 5.119Z" fill="#2D3440"/><path d="M171.676 55.621v16.147a13.21 13.21 0 0 1-2.006 5.93 13.07 13.07 0 0 1-2.754 3.444c-1.236 1.078-2.053-1.335-2.52-2.343-3.243-6.82-1.679-15.96-.419-23.107.583-3.422-6.324-2.531-6.86.515a69.228 69.228 0 0 0-1.284 18.538 4.366 4.366 0 0 0-3.126 1.71c-1.19 2.555-4.667 11.038-8.936 7.64-3.08-2.343-3.407-8.765-3.734-12.35-.371-4.97.28-9.964 1.914-14.67-.14.398 2.659-6.633 3.896-4.008a8.543 8.543 0 0 1-1.423 7.335c-3.663 2.765 2.03 3.914 4.246 2.227 4.2-3.164 7-13.382-.163-14.6-8.096-1.36-12.693 6.842-14.396 13.357a42.656 42.656 0 0 0-1.167 11.437c-1.12 1.968-4.9 8.296-7.116 9.374-2.613 1.36-2.567-.54-2.473-1.758.093-1.218 1.26-12.069 1.889-19.38a13.57 13.57 0 0 0-1.166-8.554c-1.003-2.04-9.333-6.61-16.66 1.968a27.947 27.947 0 0 0-7.186 16.405 88.357 88.357 0 0 1-1.657 3.187c-3.5 6.445-7.91 9.163-9.473 4.687a35.861 35.861 0 0 1-1.75-14.506A90.43 90.43 0 0 0 99.16 36.709c3.5-15.608 2.846-23.365.956-24.677-1.89-1.313-9.916-4.547-14.746 14.647a125.603 125.603 0 0 0-3.71 41.902 101.793 101.793 0 0 1-2.87 5.695c-3.5 6.445-7.886 9.163-9.473 4.687a35.863 35.863 0 0 1-1.656-14.506A90.434 90.434 0 0 0 79.466 36.92c3.617-15.819 2.893-23.576 1.003-24.888-1.89-1.313-9.916-4.547-14.722 14.647C60.94 45.872 59.982 66.8 64.58 80.86c0 0 2.52 7.921 7.233 7.335 3.897-.492 8.54-4.335 11.27-11.506.308 1.41.69 2.802 1.143 4.171 0 0 2.52 7.921 7.233 7.335 3.197-.398 7-3.093 9.66-8.014 1.656 4.288 5.226 7.827 9.823 7.03 6.229-1.125 7.513-4.523 7.513-4.523s-.117 5.578 3.873 5.578c3.546 0 6.37-2.086 9.17-7.406.956-1.804 1.516-2.859 1.82-3.468.816 5.038 2.893 9.514 6.999 11.319 7 3.046 13.113-2.742 16.706-8.46a10.112 10.112 0 0 0 2.203 3.7 10.05 10.05 0 0 0 3.537 2.44 8.713 8.713 0 0 0 4.714.15 8.74 8.74 0 0 0 4.106-2.33v8.25a5.979 5.979 0 0 0-3.617.984 27.437 27.437 0 0 0-8.052 11.061 27.551 27.551 0 0 0-1.724 13.593 7.606 7.606 0 0 0 1.176 3.498 7.547 7.547 0 0 0 2.684 2.523 7.5 7.5 0 0 0 7.13.095c7.233-3.164 8.329-14.061 8.936-20.716 1.47-16.007.327-32.67.327-48.722 0-2.953-6.767-1.57-6.767.843Zm-101.1-26.247c1.61-6.21 3.104-8.694 4.667-8.694 1.563 0 2.17 1.663 1.073 7.03a137.853 137.853 0 0 1-9.543 29.88s2.193-21.982 3.803-28.216Zm19.646 0c1.61-6.21 3.104-8.694 4.55-8.694 1.447 0 2.193 1.663 1.097 7.03-1.097 5.367-4.667 20.201-9.543 29.88 0 0 2.333-21.982 3.896-28.216Zm30.006 29.224c-.187 1.359-1.073 10.053-2.333 14.74-1.26 4.687-2.124 6.351-5.903 7.968-3.78 1.617-5.694-3.327-5.694-3.327-2.683-7.5.91-14.062 3.897-18.561 2.987-4.5 5.996-4.898 7.723-4.687a3.162 3.162 0 0 1 1.953 1.452 3.213 3.213 0 0 1 .357 2.414Zm51.262 42.183a42.569 42.569 0 0 1-3.687 18.303c-1.633.328-2.333-.281-2.893-2.906a25.254 25.254 0 0 1 0-7.616 21.12 21.12 0 0 1 6.486-12.07c.117 1.477.117 2.906.094 4.289ZM215.355 48.99a25.12 25.12 0 0 1-8.061-5.694 25.251 25.251 0 0 1-5.262-8.368c-2.987-8.952 6.813-15.56 14.629-15.162 7.817.398 11.993 8.483 11.667 15.724-.14 2.555-1.75 8.32-4.9 5.32a14.916 14.916 0 0 1-3.64-8.507c-.467-2.835-7.233-1.148-6.766 1.828 1.353 8.578 10.546 18.022 18.432 9.046a17.295 17.295 0 0 0 3.297-14.64 17.265 17.265 0 0 0-3.36-6.919 17.163 17.163 0 0 0-6.027-4.758 23.793 23.793 0 0 0-16.473-.32 23.915 23.915 0 0 0-12.762 10.467c-6.37 11.366 6.416 22.474 15.469 26.529 14.536 7.804 15.073 32.926-4.246 33.09a19.408 19.408 0 0 1-11.023-3.75 19.536 19.536 0 0 1-6.92-9.397c-1.33-3.937-.653-17.694 4.666-18.748 4.224-.82 3.08-4.687-1.049-3.96-8.657 1.687-11.853 12.912-11.013 20.763 1.353 12.514 13.019 19.521 24.802 19.428a22.265 22.265 0 0 0 14.418-4.769 22.438 22.438 0 0 0 8.051-12.925 21.99 21.99 0 0 0-2.596-14.668 21.84 21.84 0 0 0-11.333-9.61Z" fill="#2D3440"/><path d="M258.707 86.228c-6.65-3.656-2.847-17.74-1.844-23.154.654-3.492 3.617-8.882-1.143-10.077-5.576-1.36-12.203 3.96-16.986 9.046a119.3 119.3 0 0 1 1.283-17.53 36.44 36.44 0 0 0 16.753-17.318c3.033-6.094 4.527-18.749-5.74-15.046-9.333 3.281-12.529 14.061-15.446 22.709a70.557 70.557 0 0 0-2.543 10.241c-.931.392-1.881.737-2.847 1.031-3.873 1.219-3.36 3.304.56 2.086l1.89-.61c-1.866 13.148-.606 26.928.583 39.84 0 1.266 7 0 6.744-1.828-.514-5.765-.957-11.53-1.144-17.248a3.234 3.234 0 0 0 1.47-.914 52.61 52.61 0 0 1 7.187-7.429c.7-.633 1.423-1.218 2.146-1.78l1.074-.798c1.563-1.242 1.866-1.265.886 0a64.427 64.427 0 0 1-1.446 6.633c-1.284 7.03-4.97 20.833 3.126 25.263 1.75.89 8.05-1.735 5.437-3.117Zm-15.143-56.502c.723-2.086 1.68-4.149 2.566-6.164 1.097-2.531 4.037-11.179 6.16-7.03 1.703 3.304-.98 8.717-2.17 11.881a27.85 27.85 0 0 1-9.333 12.42 87.1 87.1 0 0 1 2.777-11.107Z" fill="#2D3440"/><path d="M283.789 69.8c0-7.71-.863-17.6-10.033-18.42-10.056-.914-13.999 9.655-14.139 17.553a1.381 1.381 0 0 0 .816 1.335c0 7.382 1.773 17.014 10.523 16.85 9.753-.14 12.833-8.694 12.833-17.318Zm-11.666 12.842c-5.693-2.343-5.18-12.21-4.807-16.967a1.268 1.268 0 0 0-.56-1.242c.7-4.687 2.52-11.718 6.673-8.226 3.314 2.86 3.384 9.726 3.547 13.686.14 2.766-.21 14.483-4.83 12.75h-.023ZM357.287 112.1c-2.614-6.749-8.353-9.374-14.677-9.655a26.377 26.377 0 0 0-2.636-4.875c-9.123-13.569-30.776-11.717-45.452-4.687 0-2.132-.21-4.265-.303-6.397 2.92.236 5.851-.286 8.511-1.517a17.065 17.065 0 0 0 6.678-5.514c3.897-5.601 3.337-15.538 1.797-21.818-1.447-5.906-7.187-4.851-11.503-2.883a17.169 17.169 0 0 0-4.34 2.953c0-1.57.257-3.164.373-4.687.257-3.609-6.626-2.695-6.859.492-1.074 14.507-.7 28.966-1.027 43.45a34.555 34.555 0 0 0-9.605 12.676 34.714 34.714 0 0 0-2.925 15.656c0 5.32 4.504 9.374 9.333 5.578 6.744-5.203 8.797-15.538 9.73-23.435a72.95 72.95 0 0 0 .373-10.617 32.566 32.566 0 0 1 17.699-5.372 32.562 32.562 0 0 1 17.767 5.138 16.242 16.242 0 0 1 5.296 6.328 42.525 42.525 0 0 0-10.779 3.468c-3.99 1.922-9.917 6.468-9.637 11.554a7.058 7.058 0 0 0 1.433 4.465 7 7 0 0 0 3.911 2.565c.212.108.44.18.676.211 14.326 2.344 24.989-6.163 22.936-18.139 7 3.82 9.59 12.679 7.116 20.295-5.576 17.108-27.042 20.928-39.548 9.491-1.353-1.218-7.443 1.36-6.37 2.344 18.059 16.569 63.045 1.242 52.032-27.068Zm-69.858-4.148a36.562 36.562 0 0 1-2.66 12.046 50.938 50.938 0 0 1-1.89 3.75s-.607.14-.723-1.688a33.853 33.853 0 0 1 5.46-18.49c-.047 1.453-.094 2.929-.187 4.382Zm7.303-41.855c.135-.115.253-.25.35-.398a32.812 32.812 0 0 1 4.433-5.883 18.37 18.37 0 0 1 4.223-3.562c.747.375 1.517 2.344 1.797 4.992.723 6.515 1.027 23.67-9.193 22.052a5.574 5.574 0 0 0-2.333.399c-.024-5.953.303-11.765.723-17.6Zm30.519 55.635h-.14c-3.92-.937-3.5-4.687-2.987-7.218 1.144-5.929 8.33-9.116 14.257-9.374 3.01 8.437.7 18.537-11.13 16.592Z" fill="#2D3440"/></svg>